<?xml version="1.0" standalone="no"?>
<!DOCTYPE svg PUBLIC "-//W3C//DTD SVG 1.1//EN" "http://www.w3.org/Graphics/SVG/1.1/DTD/svg11.dtd" >
<svg xmlns="http://www.w3.org/2000/svg" xmlns:xlink="http://www.w3.org/1999/xlink" version="1.1">
<metadata>
Created by FontForge 20170731 at Wed Mar 11 13:15:19 2020
 By Aleksey,,,
Copr.1993 Pierre di Sciullo, FontShop International
</metadata>
<defs>
<font id="Fleches-UpDown" horiz-adv-x="460" >
  <font-face 
    font-family="Fleches UpDown"
    font-weight="500"
    font-stretch="normal"
    units-per-em="1000"
    panose-1="0 0 0 0 0 0 0 0 0 0"
    ascent="696"
    descent="-304"
    x-height="546"
    cap-height="698"
    bbox="0 -385 926 883"
    underline-thickness="56"
    underline-position="-208"
    unicode-range="U+0020-2260"
  />
<missing-glyph horiz-adv-x="500" 
 />
    <glyph glyph-name=".notdef" horiz-adv-x="500" 
 />
    <glyph glyph-name=".null" horiz-adv-x="0" 
 />
    <glyph glyph-name="nonmarkingreturn" horiz-adv-x="333" 
 />
    <glyph glyph-name="space" unicode=" " horiz-adv-x="312" 
 />
    <glyph glyph-name="exclam" unicode="!" horiz-adv-x="656" 
d="M559 0h-500l250 546z" />
    <glyph glyph-name="quotedbl" unicode="&#x22;" 
d="M358 296l-103 -1l-39 -93l-43 93l-104 1l145 182zM400 27l-34 -12l-28 129zM98 144l-28 -129l-34 12zM321 8l-36 -6l-5 133zM157 135l-5 -133l-35 6zM236 0h-36l18 131z" />
    <glyph glyph-name="dollar" unicode="$" horiz-adv-x="471" 
d="M440 309l-31 -61l-30 60l-28 -57l-30 57l-60 -120l28 -56l-27 -57l30 -60l-31 -59l32 -61l-32 -61l-26 55l-31 -58l-29 61l29 60l-28 60l30 60l-30 56l28 56l-60 120l-27 -56l-28 56l-30 -60l-31 62l1 107h59v118h58v118h59v119h57v-119h59v-118h60v-118h59v-104z" />
    <glyph glyph-name="ampersand" unicode="&#x26;" horiz-adv-x="913" 
d="M815 219h-366v125h244v274h122v-399zM617 509l-19 -24q-18 -24 -37 -48l-19 -24l-15 11q-20 15 -58.5 27.5t-64.5 12.5q-93 0 -160 -68.5t-60 -159.5q5 -75 51.5 -126.5t120.5 -65.5l-36 -152q-124 34 -193.5 132.5t-62.5 227.5q8 140 106.5 235t237.5 97
q42 1 102.5 -18.5t86.5 -40.5z" />
    <glyph glyph-name="quotesingle" unicode="'" horiz-adv-x="360" 
d="M327 547l-128 89l127 -208l-128 85l127 -214l-126 87l38 -607h-119l40 608l-128 -88l130 216l-131 -91l130 210l-129 -83l129 210l-107 -67l124 189l133 -188l-108 64z" />
    <glyph glyph-name="parenleft" unicode="(" horiz-adv-x="219" 
d="M182 169h-50v-383h-51v383h-49v134h16v132h17v134h16v134h17v132h17v-132h17v-134h16v-134h17v-132h17v-134z" />
    <glyph glyph-name="parenright" unicode=")" horiz-adv-x="960" 
d="M514 439h-68v91h68v-91zM584 349h-68v90h68v-90zM444 349h-68v90h68v-90zM656 258h-68v90h68v-90zM516 258h-68v90h68v-90zM368 258h-68v90h68v-90zM926 212h-138v43h70v-21h68v-22zM166 212h-132v22h68v21h64v-43zM728 0h-62v256h62v-256zM584 0h-62v256h62v-256zM440 0
h-62v256h62v-256zM296 0h-62v256h62v-256z" />
    <glyph glyph-name="plus" unicode="+" horiz-adv-x="432" 
d="M398 328l-34 8l-14 12l-34 8l-34 12l-20 2l26 -62l4 -38l14 -32l-12 -16l14 -8l10 -42l14 -56l16 -42l-4 -24l18 -12l2 -30l12 -20l-16 -12l-22 28l-32 40l-12 32l-10 40l-30 26l-18 34l-8 28l-20 -10l-18 -32l-22 -30l-28 -42l-22 -40l-20 -24l-12 -32l-16 -8l-10 -10
l-18 8l30 56l20 70l8 44l6 20l20 34l-6 20l16 52l14 40l6 34l10 30l-42 -16l-34 -22l-20 -2l-36 -20l26 72l28 58l24 8l-10 18l10 18v26l16 18l16 27l8 39l20 47l13 6l9 42l20 45l26 -74l12 -30l26 -40l-2 -18l16 -48l26 -26l8 -48l22 -36l14 -46l24 -26z" />
    <glyph glyph-name="comma" unicode="," horiz-adv-x="462" 
d="M424 161l-45 -6l-30 27l-18 -24l-33 -3l-27 -3l-12 -66v-24l9 -57l-15 -30v-27l-6 -54v-30v-51l-42 9l9 45l-21 39l6 42l9 48l-18 15l-12 72l9 36v30l-6 27l-33 -15l-21 12l-27 6l-21 -18l-45 3l18 33l30 39l18 48v33l39 39l3 33l12 39l42 63v33l15 33l12 18l3 24l27 -81
l21 -54l-9 -39h18l21 -21l21 -63l9 -30l33 -39l-12 -33l15 -18l21 -18z" />
    <glyph glyph-name="period" unicode="." horiz-adv-x="891" 
d="M860 414l-74 10l-26 2l-66 22l-34 -6l-66 26l-34 -6l-38 18l-14 -6l-10 2v-76l-10 -52l10 -34l-10 -18l10 -84l-10 -16l10 -42l-6 -16v-56l6 -48l-4 -30l-36 -4l-40 -8l-14 10l-26 -4l8 38l-2 68v76l-2 20l10 10l-12 6l-4 32l2 74l-4 28l10 28l-16 36l10 44l6 18l-54 -10
l-68 -6l-44 -10l-12 -10l-46 -4l-44 -8l-42 -10l-4 6l-38 -14l54 40l70 52v10l44 32l36 16l18 32l42 24l30 6l16 32l42 28l36 32l20 12l36 -30l20 -18l-2 -10h20l32 -36l38 -12l24 -26l28 -8l52 -50h24l28 -40l32 -8l24 -34l40 -16z" />
    <glyph glyph-name="one" unicode="1" horiz-adv-x="423" 
d="M387 336l-73 28l-46 -21l-34 -147l20 -206l-48 34l-46 -34l20 206l-34 147l-50 23l-69 -30l43 198l137 214l125 -214z" />
    <glyph glyph-name="three" unicode="3" horiz-adv-x="582" 
d="M550 548h-517v57h57v57h58v58h56v57h58v57h59v-57h57v-57h56v-58h58v-57h58v-57zM539 485l-27 -601l-26 601h53zM466 485l-28 -601l-26 601h54zM392 485l-27 -601l-27 601h54zM318 485l-28 -601l-27 601h55zM242 485l-27 -601l-26 601h53zM169 485l-28 -601l-27 601h55z
M94 485l-28 -601l-26 601h54z" />
    <glyph glyph-name="four" unicode="4" horiz-adv-x="882" 
d="M855 409l-368 125l116 -539l-173 473l-175 -473l116 532l-347 -118l403 313z" />
    <glyph glyph-name="five" unicode="5" horiz-adv-x="357" 
d="M221 3h-17v533h17v-533zM153 -1h-17v533h17v-533zM255 3h-17v399h17v-399zM119 -1h-17v399h17v-399zM187 -385h-17v1049h17v-1049zM289 3h-17v267h17v-267zM85 -1h-17v267h17v-267zM323 3h-17v143h17v-143zM51 -1h-17v143h17v-143z" />
    <glyph glyph-name="six" unicode="6" horiz-adv-x="879" 
d="M599 189l-34 10l-72 267l34 -10zM389 466l-72 -267l-34 -10l72 267zM729 184l-34 20l-118 200l36 -20zM305 404l-118 -200l-34 -20l116 200zM457 2h-34v525h34v-525zM204 345l-28 -42l-134 -134l28 42zM840 169l-134 134l-28 42l134 -134z" />
    <glyph glyph-name="seven" unicode="7" horiz-adv-x="417" 
d="M390 319l-129 43l109 -389l-90 235l42 -272l-72 268l22 -290l-46 288l-16 -294l-10 296l-46 -290l20 294l-68 -276l40 280l-96 -239l109 389l-129 -43l180 412z" />
    <glyph glyph-name="eight" unicode="8" horiz-adv-x="456" 
d="M425 158l-140 64l-56 -406l-56 406l-141 -64l197 458z" />
    <glyph glyph-name="colon" unicode=":" horiz-adv-x="579" 
d="M552 510l-4 -26l-6 -30h-48l-18 -10l-22 2l-32 4l-42 12v-16l-4 -82l-12 -10l14 -14l-4 -68v-36v-24l-6 -32l6 -32l2 -40l-2 -58l-2 -30l2 -24h-36h-16l4 26l10 28l-8 18l-28 -2h-22l-18 -6l-2 -32l-4 -32h-22l-28 2l8 38l-8 28l8 56l-12 48l8 62l-8 64l2 20l8 48l-2 14
l-4 42l-8 22l4 18l-48 -6l-28 10l-30 -2l-22 -6l-28 -4l-12 2l2 34l-4 24l34 4h24l-6 36l18 20h18l30 4l-4 34l2 20l38 -4h20l-4 36l4 24l36 -2l20 2l-2 34l8 20l30 2l18 2l2 -28l-8 -26l46 -2l22 2l-2 -50l-4 -18h46l18 8l2 -26l-8 -38l20 4l36 2l6 -28l4 -38l22 6h36z" />
    <glyph glyph-name="semicolon" unicode=";" horiz-adv-x="276" 
d="M240 345h-51l-9 -3h-15l6 -30l-3 -42l6 -39l-6 -45l6 -54l-9 -39l3 -33l-6 -39l9 -27l-27 3l-30 -3l6 45l-6 48l9 51l-15 36l6 39v39l6 45l-3 36v30l-15 -9l-42 3l-27 -3l-6 -3l27 36l9 45l9 24l14 62l16 29l-9 5l12 30v28l17 38l7 33l1 29l14 28l9 -45l15 -42l12 -36
l-3 -36l6 -33l12 -30l6 -27l3 -33l15 -39v-30l15 -21z" />
    <glyph glyph-name="equal" unicode="=" horiz-adv-x="357" 
d="M336 253l-8 -16l2 -38l-2 -20h-28l-38 -6l-26 6l-6 -64l-2 -90l-4 -58l4 -68l4 -60l-2 -40l-38 -4h-42l-22 4l4 50l-8 28l6 16l-2 30l-2 50l8 80l-2 46l-4 26l2 24l-4 28l-44 -2l-30 10l-18 -10v48v42v32l-4 14h30l4 34v60l-4 24l2 20l34 -2v44l14 10l-12 4l-4 38l4 32
l32 6l-2 50l2 40l-2 38l32 4l4 62l-2 44l4 30l32 -4l-2 -52v-62l-2 -30l18 8h18v-74l-2 -56l22 -2l20 -6l-8 -32l2 -62v-28l14 -8l22 -4l-2 -84v-46l26 8l4 -48z" />
    <glyph glyph-name="question" unicode="?" horiz-adv-x="528" 
d="M503 339l-46 10l-82 22l-36 8l8 -54l-22 -14l24 -4l30 -124l18 -60l-6 -14l22 -56l14 -66l-80 6l-84 -2l-62 6l-26 -10l-44 8l-24 -8l28 52v44l12 56l24 60l4 76l6 30l18 78l-48 -6l-36 -14l-36 -16l-48 -8l38 64l26 32l2 18l12 36l22 24l46 68l20 60l46 48l28 62l28 -60
l-10 -24l18 6l8 -16l22 -38l30 -50l10 -32l60 -94l28 -46z" />
    <glyph glyph-name="A" unicode="A" horiz-adv-x="250" 
d="M208 297l-90 -347l-92 347l68 89v316h46v-316z" />
    <glyph glyph-name="B" unicode="B" horiz-adv-x="423" 
d="M382 136h-66v-68h-68v-68h-70v68h-68v68h-67v68h120v545h100v-545h119v-68z" />
    <glyph glyph-name="C" unicode="C" horiz-adv-x="688" 
d="M625 477l-353 -354l13 -14l41 40h130l72 -149h-486v486l146 -72v-123l-40 -39l15 -14l351 351z" />
    <glyph glyph-name="D" unicode="D" horiz-adv-x="900" 
d="M866 283l-428 -313l-403 313l347 -62v476h116v-483z" />
    <glyph glyph-name="E" unicode="E" horiz-adv-x="690" 
d="M628 354q-286 -404 -291 -404l-286 404l207 40l21 -225l36 524h49l35 -524l22 225z" />
    <glyph glyph-name="F" unicode="F" horiz-adv-x="647" 
d="M564 229h-57v-57h-57v-57h-57v-58h-58v-57h-58v57h-58v58h-56v57h-57v57h-59v58h173v459h53v-68h71v68h49v-459h171v-58z" />
    <glyph glyph-name="G" unicode="G" horiz-adv-x="647" 
d="M563 229h-56v-57h-58v-57h-57v-58h-57v-57h-59v57h-58v58h-55v57h-58v57h-59v58h173v459h173v-459h171v-58z" />
    <glyph glyph-name="H" unicode="H" horiz-adv-x="880" 
d="M827 377q-1 -108 -55 -198.5t-146 -143t-200 -51.5t-198.5 55t-143 146t-51.5 200t55 198.5t146 143t200 51.5t198.5 -55t143 -146t51.5 -200zM768 385q-1 141 -101.5 240t-240.5 98q-141 -1 -240 -101.5t-98 -240.5q0 -141 100.5 -240t241.5 -98t240 101t98 241z
M641 310h-48v-47h-47v-46h-45v-47h-47v-47h-48v47h-47v47h-46v46h-47v47h-46v46h139v269h141v-269h141v-46z" />
    <glyph glyph-name="I" unicode="I" horiz-adv-x="457" 
d="M422 408l-196 -458l-197 458l155 -127l-1 417h84v-417z" />
    <glyph glyph-name="J" unicode="J" horiz-adv-x="600" 
d="M379 61h-54v689h54v-689zM255 61h-53v689h53v-689zM549 233h-58v-57h-58v115h116v-58zM146 176h-58v57h-58v58h116v-115zM319 0h-58v57h58v-57z" />
    <glyph glyph-name="K" unicode="K" horiz-adv-x="615" 
d="M565 211h-107v-105h-105v-106h-106v106h-106v105h-106v107h212v423h106v-423h212v-107z" />
    <glyph glyph-name="L" unicode="L" horiz-adv-x="380" 
d="M337 318h-43v-105h-44v-106h-44v-107h-54v107h-43v106h-44v105h-45v107h133v311h53v-311h131v-107z" />
    <glyph glyph-name="M" unicode="M" horiz-adv-x="562" 
d="M516 218h-54v-54h-55v-55h-54v-55h-55v-54h-56v54h-55v55h-53v55h-55v54h-56v111h56v-54h55v-55h53v-55h55v580h56v-580h55v55h54v55h55v54h54v-111z" />
    <glyph glyph-name="N" unicode="N" horiz-adv-x="785" 
d="M716 501h-86v-84h-85v-80h-79v-170h80v-80h85v-87h-580v585h87v-85h80v-80h170v79h80v85h84v86h86v-83h78v-86z" />
    <glyph glyph-name="O" unicode="O" horiz-adv-x="260" 
d="M221 465l-98 -515l-97 515h73v228h49v-228h73z" />
    <glyph glyph-name="P" unicode="P" horiz-adv-x="275" 
d="M234 339l-103 -389l-103 389h77v355h52v-355h77z" />
    <glyph glyph-name="Q" unicode="Q" horiz-adv-x="492" 
d="M459 333l-206 -357l-204 354l32 53l30 -52l27 49l28 -49l60 103l-27 49l28 49l-29 51l28 51l-30 53l30 52l28 -47l29 50l30 -53l-30 -52l29 -52l-29 -50l27 -50l-27 -48l60 -103l28 49l28 -49l30 52z" />
    <glyph glyph-name="R" unicode="R" horiz-adv-x="650" 
d="M596 315l-269 -365l-268 365l119 40l99 -208l-22 555h138l-21 -555l102 209z" />
    <glyph glyph-name="S" unicode="S" horiz-adv-x="544" 
d="M504 362l-234 -412l-234 412l168 -43l-94 389h320l-94 -389z" />
    <glyph glyph-name="T" unicode="T" 
d="M391 362l-180 -412l-180 412l129 -43l-109 389l16 8l149 -224l140 225l15 -9l-109 -389z" />
    <glyph glyph-name="U" unicode="U" horiz-adv-x="888" 
d="M826 368q-1 -108 -55 -198.5t-146 -143t-200 -51.5t-198.5 55t-143 146t-51.5 200t55 198.5t146 143t200 51.5t198.5 -55t143 -146t51.5 -200zM771 372q0 141 -100.5 240t-241.5 98t-240 -101t-98 -241t101.5 -240t240.5 -98q141 1 240 101.5t98 240.5zM556 401
l-126 -289l-126 289l90 -5l24 247h24l23 -247z" />
    <glyph glyph-name="V" unicode="V" horiz-adv-x="760" 
d="M705 294l-344 -343l-344 343l154 52l87 -87l-1 -56h21v497h158v-500l19 -1v57l93 92z" />
    <glyph glyph-name="W" unicode="W" horiz-adv-x="288" 
d="M242 378h-24v-94h-23v-95h-24v-95h-23v-94h-24v94h-25v95h-23v95h-23v94h-24v95h70v272h72v-272h71v-95z" />
    <glyph glyph-name="X" unicode="X" horiz-adv-x="260" 
d="M232 364l-23 7v-101l-24 7v-102l-23 7v-102l-24 7v-101h-24v101l-24 -7v102l-23 -7v102l-24 -7v101l-24 -7v95l71 -21v293l36 -15l36 15v-293l70 21v-95z" />
    <glyph glyph-name="Y" unicode="Y" 
d="M391 362l-180 -412l-180 412l129 -7l34 353h34l34 -353z" />
    <glyph glyph-name="Z" unicode="Z" horiz-adv-x="656" 
d="M550 546l-250 -546l-250 546l250 -244z" />
    <glyph glyph-name="bracketleft" unicode="[" horiz-adv-x="588" 
d="M325 773h-58v57h58v-57zM383 655h-174v58h174v-58zM440 542h-287v57h287v-57zM497 429h-401v57h401v-57zM554 315h-517v58h517v-58zM383 -204h-49v68h-72v-68h-52v459h173v-459z" />
    <glyph glyph-name="backslash" unicode="\" horiz-adv-x="666" 
d="M623 487q26 -46 -18 -105q-15 -20 -39.5 -18t-47.5 14.5t-50.5 17.5t-48.5 -8q-25 -17 -36.5 -43.5t-12 -48.5t2 -62.5t1.5 -61.5q-1 -26 12 -61t25 -59.5t11.5 -49.5t-24.5 -40q-65 -41 -117 -6q-18 12 -21 31.5t3 37.5t13.5 44.5t7.5 45.5t5 77t1 97q-2 22 -0.5 39.5
t-2.5 35t-18 30.5t-29.5 16t-44 -0.5t-37.5 -3.5q-15 0 -37 -9t-33.5 -12.5t-31.5 6.5q-28 23 -16.5 65.5t46.5 60.5q19 10 55 -11.5t53 -9.5q16 11 9 36.5t-16.5 45.5t7.5 38q16 13 54 -4t54 -5q12 10 10.5 27.5t-9 33.5t-9 34t10.5 28q23 20 52.5 20t52.5 -20
q15 -14 3.5 -40t-24.5 -45.5t3 -40.5q13 -12 49 -5t47 -7q12 -13 4.5 -44t1.5 -46q12 -17 40.5 -12.5t50 11.5t38.5 -14z" />
    <glyph glyph-name="asciicircum" unicode="^" horiz-adv-x="717" 
d="M447 167h-34v533h34v-533zM311 163h-34v533h34v-533zM515 167h-34v399h34v-399zM243 163h-34v399h34v-399zM379 -221h-34v1049h34v-1049zM583 167h-34v267h34v-267zM175 163h-34v267h34v-267zM651 167h-34v143h34v-143zM107 163h-34v143h34v-143z" />
    <glyph glyph-name="underscore" unicode="_" horiz-adv-x="567" 
d="M528 533l-26 -96l-193 -52l39 -385h-142l39 385l-193 52l-25 96l96 -26l-26 96l96 -26l-26 97h220l-26 -97l96 26l-26 -96z" />
    <glyph glyph-name="a" unicode="a" horiz-adv-x="250" 
d="M208 401l-68 -89v-316h-46v316l-68 89l92 347z" />
    <glyph glyph-name="b" unicode="b" horiz-adv-x="423" 
d="M382 545h-119v-545h-100v545h-120v68h67v68h68v68h70v-68h68v-68h66v-68z" />
    <glyph glyph-name="c" unicode="c" horiz-adv-x="688" 
d="M600 103l-146 72v123l40 39l-14 14l-351 -351l-112 112l354 353l-14 15l-40 -41h-131l-72 150h486v-486z" />
    <glyph glyph-name="d" unicode="d" horiz-adv-x="920" 
d="M866 414l-368 69v-483h-116v476l-347 -62l403 313z" />
    <glyph glyph-name="e" unicode="e" horiz-adv-x="690" 
d="M629 339l-207 -40l-21 225l-36 -524h-49l-35 524l-22 -225l-207 40q286 404 291 404z" />
    <glyph glyph-name="f" unicode="f" horiz-adv-x="647" 
d="M564 459h-171v-459h-49v68h-71v-68h-53v459h-173v58h59v57h57v57h56v58h58v57h58v-57h58v-58h57v-57h57v-57h57v-58z" />
    <glyph glyph-name="g" unicode="g" horiz-adv-x="647" 
d="M563 459h-171v-459h-173v459h-173v58h59v57h58v57h55v58h58v57h59v-57h57v-58h57v-57h58v-57h56v-58z" />
    <glyph glyph-name="h" unicode="h" horiz-adv-x="880" 
d="M827 381q1 -108 -51.5 -200t-143 -146t-198.5 -55t-200 51.5t-146 143t-55 198.5t51.5 200t143 146t198.5 55t200 -51.5t146 -143t55 -198.5zM768 373q1 141 -98 241t-240 101t-241.5 -98t-100.5 -240q-1 -140 98 -240.5t240 -101.5q140 -1 240.5 98t101.5 240zM641 402
h-141v-269h-141v269h-139v46h46v47h47v46h46v47h47v47h48v-47h47v-47h45v-46h47v-47h48v-46z" />
    <glyph glyph-name="i" unicode="i" horiz-adv-x="457" 
d="M422 290l-155 127v-417h-84l1 417l-155 -127l197 458z" />
    <glyph glyph-name="j" unicode="j" horiz-adv-x="600" 
d="M319 693h-58v57h58v-57zM549 459h-116v115h58v-57h58v-58zM146 459h-116v58h58v57h58v-115zM379 0h-54v689h54v-689zM255 0h-53v689h53v-689z" />
    <glyph glyph-name="k" unicode="k" horiz-adv-x="615" 
d="M565 423h-212v-423h-106v423h-212v107h106v105h106v106h106v-106h105v-105h107v-107z" />
    <glyph glyph-name="l" unicode="l" horiz-adv-x="380" 
d="M337 311h-131v-311h-53v311h-133v107h45v105h44v106h43v107h54v-107h44v-106h44v-105h43v-107z" />
    <glyph glyph-name="m" unicode="m" horiz-adv-x="562" 
d="M516 416h-54v54h-55v55h-54v55h-55v-580h-56v580h-55v-55h-53v-55h-55v-54h-56v111h56v54h55v55h53v55h55v54h56v-54h55v-55h54v-55h55v-54h54v-111z" />
    <glyph glyph-name="n" unicode="n" horiz-adv-x="785" 
d="M704 85h-87v85h-80v80h-170v-79h-80v-85h-84v-86h-86v83h-78v86h86v84h85v80h79v170h-80v80h-85v87h580v-585z" />
    <glyph glyph-name="o" unicode="o" horiz-adv-x="260" 
d="M221 228h-73v-228h-49v228h-73l97 515z" />
    <glyph glyph-name="p" unicode="p" horiz-adv-x="275" 
d="M234 355h-77v-355h-52v355h-77l103 389z" />
    <glyph glyph-name="q" unicode="q" horiz-adv-x="492" 
d="M460 386l-32 -53l-30 52l-27 -49l-28 49l-60 -103l27 -49l-28 -49l29 -51l-28 -51l30 -53l-30 -52l-28 47l-29 -50l-30 53l30 52l-29 52l29 50l-27 50l27 48l-60 103l-28 -49l-28 49l-30 -52l-30 53l206 357z" />
    <glyph glyph-name="r" unicode="r" horiz-adv-x="650" 
d="M596 387l-122 -41l-102 209l21 -555h-138l22 555l-99 -208l-119 40l268 365z" />
    <glyph glyph-name="s" unicode="s" horiz-adv-x="544" 
d="M504 346l-168 43l94 -389h-320l94 389l-168 -43l234 412z" />
    <glyph glyph-name="t" unicode="t" 
d="M391 346l-129 43l109 -389l-15 -9l-140 225l-149 -224l-16 8l109 389l-129 -43l180 412z" />
    <glyph glyph-name="u" unicode="u" horiz-adv-x="888" 
d="M826 383q1 -108 -51.5 -200t-143 -146t-198.5 -55t-200 51.5t-146 143t-55 198.5t51.5 200t143 146t198.5 55t200 -51.5t146 -143t55 -198.5zM771 379q1 140 -98 240.5t-240 101.5q-140 1 -240.5 -98t-101.5 -240t98 -241t240 -101t241.5 98t100.5 240zM556 350l-91 5
l-23 -247h-24l-24 247l-90 -5l126 289z" />
    <glyph glyph-name="v" unicode="v" horiz-adv-x="760" 
d="M705 406l-157 -54l-93 92v57l-19 -1v-500h-158v497h-21l1 -56l-87 -87l-154 52l344 344z" />
    <glyph glyph-name="w" unicode="w" horiz-adv-x="288" 
d="M242 272h-71v-272h-72v272h-70v95h24v94h23v95h23v95h25v94h24v-94h23v-95h24v-95h23v-94h24v-95z" />
    <glyph glyph-name="x" unicode="x" horiz-adv-x="260" 
d="M233 257l-71 21v-293l-36 15l-36 -15v293l-70 -21v95l23 -7v101l24 -7v102l23 -7v102l24 -7v101h24v-101l24 7v-102l23 7v-102l24 7v-101l24 7v-95z" />
    <glyph glyph-name="y" unicode="y" 
d="M391 346l-129 7l-34 -353h-34l-34 353l-129 -7l180 412z" />
    <glyph glyph-name="z" unicode="z" horiz-adv-x="656" 
d="M550 0l-250 244l-250 -244l250 546z" />
    <glyph glyph-name="braceleft" unicode="{" horiz-adv-x="612" 
d="M585 255l-52 -84l-40 79l-36 -74l-40 74l-87 -98l28 -56l-27 -57l30 -60l-31 -59l32 -61l-32 -61l-26 55l-31 -58l-29 61l29 60l-28 60l30 60l-30 56l28 56l-90 97l-35 -74l-38 74l-39 -79l-42 89l111 110l-56 56l111 109l-54 55l110 109l-56 56l113 112l111 -112
l-55 -56l109 -109l-54 -55l111 -109l-55 -56z" />
    <glyph glyph-name="nbspace" unicode="&#xa0;" horiz-adv-x="500" 
 />
    <glyph glyph-name="cent" unicode="&#xa2;" horiz-adv-x="576" 
d="M548 456l-171 168v-627h-49v626h-72v-626h-52v627l-173 -168v58l116 114h56v58h58v57h58v-57h58v-58h57l114 -114v-58z" />
    <glyph glyph-name="copyright" unicode="&#xa9;" horiz-adv-x="297" 
d="M246 304q0 -88 -9.5 -153.5t-34.5 -155.5l-55 312l-57 -307q-26 88 -36 154t-10 155q0 113 17 187q23 105 86 207q61 -97 84 -204q15 -68 15 -195z" />
    <glyph glyph-name="guillemotleft" unicode="&#xab;" horiz-adv-x="816" 
d="M457 641l-37 -198h-23l-37 200l48 96zM591 689l-6 -109l-131 -152l-21 12l68 191zM386 440l-22 -12l-131 152l-6 109l90 -60zM724 556l-59 -93l-190 -67l-12 22l153 130zM354 419l-13 -22l-189 67l-59 90l108 -5zM339 360l-199 -36l-96 48l96 49l198 -36zM772 373
l-96 -50l-198 37v26l198 34zM354 328l-154 -132l-108 -6l59 90l190 69zM724 189l-108 5l-154 133l12 22l191 -70zM386 307l-69 -192l-90 -59l5 108l132 155zM592 55l-91 59l-69 193l22 12l131 -157zM457 102l-49 -95l-49 96l38 201h24zM433 626l-25 57l-22 -57l16 7l7 -48
l7 49zM301 609l-50 37l8 -61l11 14l30 -37l-19 45zM563 641l-50 -37l19 -2l-18 -46l31 40l12 -16zM222 484l-38 31l15 10l-61 7l38 -47l2 17zM684 528l-60 -10l14 -10l-38 -29l46 17v-18zM725 373l-57 24l8 -17l-47 -7l47 -7l-8 -18zM198 371l-50 7l8 18l-56 -25l57 -24
l-8 17zM679 217l-37 48l-2 -18l-45 19l39 -31l-15 -11zM226 265l-46 -18l-2 19l-37 -50l61 9l-14 11zM567 104l-9 61l-11 -15l-29 39l19 -47l-20 -2zM301 134l-17 3l17 44l-30 -38l-12 16l-7 -62zM430 113l-16 -7l-6 47l-8 -48l-17 7l25 -56z" />
    <glyph glyph-name="plusminus" unicode="&#xb1;" horiz-adv-x="489" 
d="M432 158q-15 -15 -32.5 0.5t-32 41t-33 42t-34.5 3.5q-16 -12 -16.5 -30t7.5 -34l20 -40t16 -40q8 -29 30.5 -77t29.5 -82q3 -13 9.5 -31.5t10 -30.5t2.5 -27t-10 -28q-24 -34 -53 31q-7 15 -20 50q-15 42 -23 57q-9 17 -10.5 49.5t-8.5 52.5t-29 24q-24 4 -37 -14
t-23.5 -53t-20.5 -50q-12 -19 -24.5 -64.5t-25.5 -67t-37 -6.5q-18 11 -18 29.5t9.5 35.5t24.5 42.5t20 42.5q8 25 29 66.5t28 71.5q4 15 14 39t16 39t4 33t-16 30q-15 15 -33.5 0.5t-31.5 -38.5t-33 -42t-40 -10t-24.5 23.5t5.5 36t23 41t29.5 47t23.5 44.5q2 6 8 21.5
t8.5 21t7.5 18t8 19t8.5 17t10.5 19.5t12 19q7 11 21.5 42t28.5 45t37 15q30 1 40 -24t13 -69t13 -66q9 -20 35 -68.5t37 -84.5q4 -14 15 -35.5t18 -35.5t7 -31t-13 -30z" />
    <glyph glyph-name="paragraph" unicode="&#xb6;" horiz-adv-x="489" 
d="M450 193l-189 211q35 -432 58 -569q-16 -34 -78 -34q-49 0 -70 37q9 59 21 200.5t20 253.5l7 112l-181 -211q23 234 68 362q55 162 140 262q91 -128 130 -256q18 -59 36.5 -151t27.5 -154z" />
    <glyph glyph-name="questiondown" unicode="&#xbf;" horiz-adv-x="555" 
d="M517 350q-5 -14 -15.5 -15.5t-24 8t-28 21t-32.5 23t-32 14.5q-17 3 -27 2.5t-14 -7.5t-3.5 -14.5t4 -19.5t7 -22t6.5 -21.5t3 -19.5q0 -18 2.5 -35.5t6 -28t11 -31t10.5 -31.5q6 -17 21.5 -48.5t20.5 -53.5q2 -8 7 -20t8.5 -20t3 -18t-6.5 -17q-7 -8 -16.5 -9t-18.5 2.5
t-21.5 7.5t-21.5 5q-16 2 -49 12t-56 9q-19 0 -48.5 -14.5t-50.5 -12.5q-32 3 -42.5 11.5t-6 17t12 22t6.5 21.5q-3 29 24 68.5t30 63.5t-12 67.5t-6 70.5q4 13 29 32.5t19 36.5q-4 10 -11.5 14t-18.5 2.5t-20.5 -4t-24 -8t-21.5 -7.5q-15 -4 -30 -22.5t-28 -30t-29 -4.5
q-12 6 -13 15t7.5 20t19.5 22.5t23 25.5t17 25q10 20 24 54.5t27 59t33 48.5q10 11 31.5 28t31.5 32q6 9 10.5 22.5t6.5 25.5t4.5 23.5t6 17t8.5 4.5q7 -2 14 -14.5t18 -42.5t13 -36q1 -3 6.5 -21t11.5 -27q7 -10 23 -20t22 -16q23 -24 36.5 -75t26.5 -72q9 -15 32.5 -31
t36.5 -31t6 -34z" />
    <glyph glyph-name="germandbls" unicode="&#xdf;" horiz-adv-x="174" 
d="M132 407q-6 25 -14 37q-3 4 -9 9.5t-11 8.5l-4 4l-3 1q-3 -4 0 -32q0 -3 4.5 -29.5t7.5 -55t1 -38.5q-2 -9 -11 -26t-9 -30q0 -12 10 -28t10 -27t-10 -28t-10 -29t10 -28t10 -27q0 -12 -9.5 -29t-10.5 -28q-1 -9 0 -22.5t2 -22.5l2 -9q-14 33 -14 54q0 11 10 28.5
t10 28.5t-10 27t-10 28t10 29t10 28t-10 27t-10 28q0 13 9 30t11 26q3 13 -4.5 67t-7.5 56q-2 34 2 31q-17 -11 -23 -20q-4 -5 -8 -15t-6 -17l-2 -7q2 79 7 128q3 25 9 61t11 60l5 24q29 -77 39 -126q5 -24 9 -61t5 -61z" />
    <glyph glyph-name="agrave" unicode="&#xe0;" horiz-adv-x="276" 
d="M195 346l-43 7v-353h-34v353l-43 -7l60 412z" />
    <glyph glyph-name="egrave" unicode="&#xe8;" horiz-adv-x="816" 
d="M457 641l-49 -267l-48 269l37 -13v114l11 -5l13 7v-114zM409 374l-176 206l37 11l-57 97l14 1l7 13l57 -100l26 27zM605 688l-57 -99l37 -9l-176 -206l92 257l25 -28l57 97l8 -11zM408 374l-256 90l28 28l-99 56l12 6v17l99 -57l9 35zM737 548l-99 -57l27 -28l-257 -91
l208 176l9 -36l99 55v-11zM408 372l-268 -48l10 36h-114l8 12l-8 14h114l-10 35zM780 359h-114l10 -36l-267 50l267 47l-10 -37l114 2l-8 -12zM408 373l-208 -177l-9 37l-99 -57v14l-13 7l99 57l-27 26zM736 195l-12 -6v-15l-99 57l-9 -37l-207 178l256 -93l-28 -27z
M409 371l-92 -256l-27 28l-57 -98l-6 11h-16l57 99l-36 9zM605 55h-13l-8 -12l-57 98l-26 -27l-92 258l176 -210l-37 -8zM457 102l-36 12v-114l-13 7l-11 -8l-1 115l-37 -11l50 269z" />
    <glyph glyph-name="eacute" unicode="&#xe9;" horiz-adv-x="700" 
d="M621 346l-43 7v-353h-34v353l-43 -7l60 412zM471 346l-43 7v-353h-34v353l-43 -7l60 412zM321 346l-43 7v-353h-34v353l-43 -7l60 412zM171 346l-43 7v-353h-34v353l-43 -7l60 412z" />
    <glyph glyph-name="divide" unicode="&#xf7;" horiz-adv-x="642" 
d="M594 468q25 -13 5.5 -49t-50.5 -47q-16 -6 -41 4.5t-37 10.5q-7 0 -24 3t-27 1.5t-18 -10.5q-14 -14 3 -44.5t18 -42.5q2 -33 -16 -79.5t-20 -73.5q-2 -26 12.5 -80t2.5 -88q-1 -5 -4 -17t-5 -18t-7.5 -12.5t-13.5 -9.5q-14 -5 -14 12q0 6 3 22q8 48 -7 59q-27 18 -51 12
q-15 -4 -14 -23.5t5.5 -38t-9.5 -31.5q-30 -23 -69 -12q-24 7 -27 28t7 61t11 55q2 32 21.5 82.5t20.5 85.5q0 15 3 40t4.5 42.5t0.5 36t-10.5 30.5t-27.5 16q-9 2 -45 0q-16 -1 -36 -11t-33 -18.5t-29.5 -10.5t-24.5 13q-17 26 -12 45q4 14 32 16t34 14q3 6 2 20t4 19
q6 8 24.5 7.5t26.5 4.5q9 8 4 35t8 28q8 2 20.5 -9.5t21.5 -8.5q14 1 1.5 27.5t-4.5 35.5q10 10 36 -7t36 -8q10 8 2 32.5t1 33.5q12 12 27 15t27 -6q8 -7 -1.5 -26.5t-4.5 -27.5q8 -12 36.5 7.5t38.5 7.5t-12.5 -36t-14.5 -36q13 -13 25 -1t31 26t31 5q10 -7 6 -23
t-13 -30.5t-11.5 -27.5t9.5 -15t28.5 16.5t28.5 13.5q13 -5 2.5 -35.5t0.5 -39.5q12 -8 35.5 14t36.5 16z" />
    <glyph glyph-name="endash" unicode="&#x2013;" horiz-adv-x="516" 
d="M487 402l-172 129v-531h-105v531l-174 -129v49h51v49h51v52h48v49l51 129v-80h51v80l50 -129v-49h49v-52h51v-49h49v-49z" />
    <glyph glyph-name="emdash" unicode="&#x2014;" horiz-adv-x="554" 
d="M482 385h-193v-385h-97v385h-192v97l97 -56v151l95 -56v153l49 -62l48 62v-153l96 56v-151l97 56v-97z" />
    <glyph glyph-name="quoteleft" unicode="&#x2018;" horiz-adv-x="777" 
d="M504 490l-82 5l-27 -106l-27 106l-78 -5l104 128zM368 365l-333 -139l-12 30zM381 361l-157 -146l-14 14zM557 199l-15 -13l-132 173zM387 358l-132 -174l-15 14zM747 193l-16 -29l-304 195zM373 356l-304 -195l-17 29zM522 172l-17 -10l-99 193zM409 136h-20l10 217z
M393 353l-28 -214l-19 2zM708 132l-20 -26l-266 244zM380 346l-165 -321l-29 16zM549 12l-30 -11l-108 344zM390 343l-108 -345l-31 11zM480 -11l-32 -6l-47 359z" />
    <glyph glyph-name="quoteright" unicode="&#x2019;" horiz-adv-x="162" 
d="M138 -7l-52 53v-15l40 -42v-17l-40 42v-15l31 -31v-17l-31 31v-15l19 -21v-16l-24 26l-27 -26v16l22 21v15l-31 -31v17l31 31v15l-43 -42v17l43 42v15l-52 -53v17l52 52v394l-39 -59l45 280l42 -280l-38 59v-394l52 -52v-17z" />
    <glyph glyph-name="quotedblleft" unicode="&#x201c;" horiz-adv-x="597" 
d="M565 559h-212v-423h-106v423h-212v107h106v105h106v106h106v-106h105v-105h107v-107zM565 425h-59v57h59v-57zM93 425h-59v57h59v-57zM565 297h-59v57h59v-57zM93 297h-59v57h59v-57zM565 177h-59v57h59v-57zM93 177h-59v57h59v-57zM565 49h-59v57h59v-57zM93 49h-59v57
h59v-57zM329 13h-59v57h59v-57zM329 -107h-59v57h59v-57zM329 -235h-59v57h59v-57z" />
    <glyph glyph-name="quotedblright" unicode="&#x201d;" horiz-adv-x="765" 
d="M593 489l-185 62l58 -269l-85 236l-89 -236l58 266l-172 -59l200 156zM727 419l-2 -21l-108 83zM149 481l-108 -83l-2 21zM696 341l-6 -20l-91 100zM167 421l-91 -100l-6 20zM644 255l-9 -19l-74 115zM205 351l-74 -115l-9 19zM587 188l-12 -17l-53 126zM244 297
l-53 -126l-12 17zM516 138l-15 -15l-29 133zM294 256l-29 -133l-15 15zM394 97h-23l11 121z" />
    <glyph glyph-name="quotedblbase" unicode="&#x201e;" horiz-adv-x="777" 
d="M406 557l-25 -175l-25 175l18 -4v151h15v-151zM734 345h-151l4 -18l-175 26l175 25l-4 -18h151v-15zM351 353l-175 -26l4 19h-151v14h151l-4 18zM406 147l-19 4v-151h-14v151l-18 -4l25 175z" />
    <glyph glyph-name="bullet" unicode="&#x2022;" horiz-adv-x="873" 
d="M846 389q-1 -35 -39 -15q-11 6 -39 25q-72 49 -105 50q-17 1 -42 -2.5t-42 -3.5q-14 0 -46.5 14t-52.5 4q-19 -9 -21.5 -19t3.5 -21.5t12 -42t3 -67.5q-1 -19 14 -49t13 -50q-2 -22 -24 -50.5t-24 -48.5q-2 -18 9 -39.5t23 -35.5t17.5 -33t-7.5 -33q-25 -32 -74.5 -31.5
t-66.5 37.5q-9 20 10.5 52t19.5 50q0 23 -16.5 57t-16.5 57q0 22 15 53t15 52q0 20 -14.5 48.5t-15.5 47.5q-1 11 4.5 26.5t11 26.5t5 21.5t-11.5 15.5q-16 3 -22.5 0t-20.5 -13.5t-23 -13.5q-10 -4 -49 -22t-65 -26q-52 -15 -108.5 -25.5t-53.5 -1.5q17 57 51.5 91.5
t92.5 58.5q14 6 41.5 9t42.5 12q24 13 43.5 50.5t34.5 51.5q8 7 24 23.5t24.5 23.5t24 14t32.5 8q12 0 29 -17.5t39 -44.5t40 -40q24 -17 63.5 -37.5t53.5 -28.5q80 -47 99 -63q10 -8 30.5 -22.5t31.5 -23t20 -24.5t8 -35z" />
    <glyph glyph-name="ellipsis" unicode="&#x2026;" horiz-adv-x="306" 
d="M258 177q-10 0 -21 15.5t-21 14.5q-11 -1 -24 -12q-13 -10 -18 -33q-5 -17 10.5 -44t13.5 -43q-1 -11 -11.5 -27t-12.5 -27q-3 -17 12 -46t9 -47q-2 -8 -13.5 -19t-13.5 -20q-2 -10 9.5 -30.5t2.5 -29.5q-14 -11 -30.5 -6.5t-29.5 18.5t6 43t18 44q0 11 -9 28t-9 29
q0 8 4 19.5t5 16.5q10 51 9 66q-1 13 -12.5 34t-11.5 35q0 8 7 21t10 19t-5 14q-8 4 -21.5 -5.5t-20.5 -9.5q-6 0 -21.5 -3t-23.5 -3t-15 7.5t-6 25.5q1 15 19 32.5t23 27.5q7 14 11.5 39t12.5 39q4 8 20 21.5t19 26.5q4 15 -7.5 36.5t-10.5 35.5q2 19 21.5 41t23.5 37
q1 5 -0.5 14.5t-0.5 15.5t7 6t8.5 -5t2.5 -14.5t1 -13.5q4 -16 -1 -41t-2 -40q3 -14 15 -33.5t15 -32.5q4 -16 2 -47t4 -46q5 -14 22.5 -31.5t22.5 -31.5q2 -6 7.5 -19.5t8.5 -22t4.5 -18.5t-2 -15.5t-12.5 -5.5z" />
    <glyph glyph-name="radical" unicode="&#x221a;" horiz-adv-x="618" 
d="M567 226l-230 127l59 -343l-49 -90v89h-72v-89l-52 90l58 343l-231 -127v58h59v57h57v57h56v58h58v57h58v-57h58v-58h57v-57h57v-57h57v-58z" />
    <glyph glyph-name="integral" unicode="&#x222b;" horiz-adv-x="405" 
d="M231 652h-54v107h54v-107zM275 496h-141v106h141v-106zM319 341h-229v105h229v-105zM362 184h-317v107h317v-107zM231 -177h-53v311h53v-311z" />
    <glyph glyph-name="notequal" unicode="&#x2260;" horiz-adv-x="456" 
d="M396 136q-9 -15 -26.5 -9t-33 20t-36 23.5t-36.5 1.5q-22 -11 -25.5 -33t5.5 -44t19 -54t10 -55q0 -30 15.5 -91.5t12 -97.5t-42.5 -48q-74 -21 -102 12q-11 10 -9.5 25.5t7.5 27t13 29.5t7 32q1 36 -15 91.5t-15 91.5q0 14 8 32.5t14.5 30.5t7.5 27.5t-12 23.5
q-17 14 -52 -7.5t-53 -16.5q-31 8 -32.5 51t23.5 72q6 8 25.5 9.5t31.5 17.5q9 12 5 28t-13.5 29.5t-13.5 29t4 27.5q8 10 25 6.5t20 11.5q7 19 -5 50t-7 49q3 8 8.5 10.5t11.5 2t13 4t12 16.5q9 19 -6 60t0 57q3 5 17.5 11.5t15.5 15.5q2 15 -5 53.5t-4 62t27 25.5
q18 1 20 -14t-3.5 -37.5t2.5 -57.5t35 -65q10 -9 8.5 -19t-7.5 -15.5t-11 -20t-2 -32.5q3 -22 21 -34t23 -25t-10.5 -33.5t-8.5 -41.5q5 -16 27 -30t28 -27t1 -31t-12.5 -31t-8.5 -27.5t12 -19.5q9 -5 25 -2.5t26 -0.5q39 -14 44 -62t-23 -85z" />
  </font>
</defs>
</svg>
