<?xml version="1.0" standalone="no"?>
<!DOCTYPE svg PUBLIC "-//W3C//DTD SVG 1.1//EN" "http://www.w3.org/Graphics/SVG/1.1/DTD/svg11.dtd" >
<svg xmlns="http://www.w3.org/2000/svg" xmlns:xlink="http://www.w3.org/1999/xlink" version="1.1">
<metadata>
Created by FontForge 20170731 at Wed Mar 11 13:15:21 2020
 By Aleksey,,,
Copr.1993 Pierre di Sciullo, FontShop International
</metadata>
<defs>
<font id="Fleches-LeftRight" horiz-adv-x="840" >
  <font-face 
    font-family="Fleches LeftRight"
    font-weight="500"
    font-stretch="normal"
    units-per-em="1000"
    panose-1="0 0 0 0 0 0 0 0 0 0"
    ascent="800"
    descent="-200"
    x-height="184"
    cap-height="371"
    bbox="-10.5077 -198 1570 792.151"
    underline-thickness="56"
    underline-position="-208"
    unicode-range="U+0020-2260"
  />
<missing-glyph horiz-adv-x="500" 
 />
    <glyph glyph-name=".notdef" horiz-adv-x="500" 
 />
    <glyph glyph-name=".null" horiz-adv-x="0" 
 />
    <glyph glyph-name="nonmarkingreturn" horiz-adv-x="333" 
 />
    <glyph glyph-name="space" unicode=" " horiz-adv-x="312" 
 />
    <glyph glyph-name="exclam" unicode="!" horiz-adv-x="612" 
d="M573 250l-546 -250v500z" />
    <glyph glyph-name="quotedbl" unicode="&#x22;" horiz-adv-x="552" 
d="M185 365l-129 28l12 34zM176 306l-133 5l6 35zM519 249l-182 -144l-1 103l-93 39l93 43l1 104zM172 245l-131 -18v36zM176 183l-127 -41l-6 36zM185 125l-117 -62l-12 34z" />
    <glyph glyph-name="dollar" unicode="$" horiz-adv-x="1024" 
d="M966 178h-119v-59h-118v-60h-118v-59h-104l-61 31l60 30l-57 28l57 30l-120 60l-56 -28l-57 27l-60 -30l-59 31l-61 -32l-61 32l55 26l-58 31l61 29l60 -29l60 28l60 -30l56 30l56 -28l120 60l-56 27l56 28l-60 30l62 31l107 -1v-59h118v-58h118v-59h119v-57z" />
    <glyph glyph-name="ampersand" unicode="&#x26;" horiz-adv-x="913" 
d="M815 219h-366v125l160 1l-19 28q-62 91 -186 91q-93 0 -160 -68.5t-60 -159.5q5 -75 51.5 -126.5t120.5 -65.5l-36 -152q-124 34 -193.5 132.5t-62.5 227.5q8 140 106.5 235.5t237.5 96.5q163 1 252 -98l33 -36v168h122v-399z" />
    <glyph glyph-name="quotesingle" unicode="'" horiz-adv-x="1250" 
d="M1181 151l-188 -133l64 108l-212 -126l89 128l-208 -127l85 128l-214 -127l87 126l-607 -38v119l608 -40l-88 128l216 -130l-91 131l210 -130l-83 129l210 -129l-67 107z" />
    <glyph glyph-name="parenleft" unicode="(" horiz-adv-x="1188" 
d="M1080 67h-132v-17h-134v-16h-134v-17h-132v-17h-134v50h-383v51h383v49h134v-16h132v-17h134v-16h134v-17h132v-17z" />
    <glyph glyph-name="parenright" unicode=")" horiz-adv-x="618" 
d="M314 562h-43v132h22v-68h21v-64zM315 432h-256v62h256v-62zM407 360h-90v68h90v-68zM315 288h-256v62h256v-62zM498 284h-90v68h90v-68zM589 214h-91v68h91v-68zM407 212h-90v68h90v-68zM498 144h-90v68h90v-68zM315 144h-256v62h256v-62zM407 72h-90v68h90v-68zM315 0
h-256v62h256v-62zM314 -130h-21v-68h-22v138h43v-70z" />
    <glyph glyph-name="plus" unicode="+" horiz-adv-x="864" 
d="M824 162l-74 -26l-30 -12l-40 -26l-18 2l-48 -16l-26 -26l-48 -8l-36 -22l-46 -14l-26 -24l-28 -12l8 34l12 14l8 34l12 34l2 20l-62 -26l-38 -4l-32 -14l-16 12l-8 -14l-42 -10l-56 -14l-42 -16l-24 4l-12 -18l-30 -2l-20 -12l-12 16l28 22l40 32l32 12l40 10l26 30
l34 18l28 8l-10 20l-32 18l-30 22l-42 28l-40 22l-24 20l-32 12l-8 16l-10 10l8 18l56 -30l70 -20l44 -8l20 -6l34 -20l20 6l52 -16l40 -14l34 -6l30 -10l-16 42l-22 34l-2 20l-20 36l72 -26l58 -28l8 -24l18 10l18 -10h26l18 -16l27 -16l39 -8l47 -20l6 -13l42 -9z" />
    <glyph glyph-name="comma" unicode="," horiz-adv-x="885" 
d="M813 177l-81 -27l-54 -21l-39 9v-18l-21 -21l-63 -21l-30 -9l-39 -33l-33 12l-18 -15l-18 -21l-42 -33l-6 45l27 30l-24 18l-3 33l-3 27l-66 12h-24l-57 -9l-30 15h-27l-54 6h-30h-51l9 42l45 -9l39 21l42 -6l48 -9l15 18l72 12l36 -9h30l27 6l-15 33l12 21l6 27l-18 21
l3 45l33 -18l39 -30l48 -18h33l39 -39l33 -3l39 -12l63 -42h33l33 -15l18 -12z" />
    <glyph glyph-name="period" unicode="." horiz-adv-x="796" 
d="M764 384l-30 -36l-18 -20l-10 2v-20l-36 -32l-12 -38l-26 -24l-8 -28l-50 -52v-24l-40 -28l-8 -32l-34 -24l-16 -40l-24 -24l10 74l2 26l22 66l-6 34l26 66l-6 34l18 38l-6 14l2 10h-76l-52 10l-34 -10l-18 10l-84 -10l-16 10l-42 -10l-16 6h-56l-48 -6l-30 4l-4 36
l-8 40l10 14l-4 26l38 -8l68 2h76l20 2l10 -10l6 12l32 4l74 -2l28 4l28 -10l36 16l44 -10l18 -6l-10 54l-6 68l-10 44l-10 12l-4 46l-8 44l-10 42l6 4l-14 38l40 -54l52 -70h10l32 -44l16 -36l32 -18l24 -42l6 -30l32 -16l28 -42l32 -36z" />
    <glyph glyph-name="one" unicode="1" horiz-adv-x="885" 
d="M818 159l-214 -125l-198 -55l28 73l-21 46l-147 34l-206 -20l34 48l-34 46l206 -20l147 34l23 50l-30 69l198 -43z" />
    <glyph glyph-name="three" unicode="3" horiz-adv-x="1028" 
d="M640 457l-601 28l601 26v-54zM640 382l-601 28l601 27v-55zM640 309l-601 27l601 26v-53zM640 233l-601 28l601 27v-55zM989 230h-57v-57h-57v-56h-58v-58h-57v-58h-57v517h57v-57h57v-58h58v-56h57v-58h57v-59zM640 159l-601 27l601 27v-54zM640 85l-601 28l601 26v-54z
M640 12l-601 27l601 26v-53z" />
    <glyph glyph-name="four" unicode="4" horiz-adv-x="790" 
d="M762 387l-313 -428l125 368l-539 -116l473 173l-473 175l532 -116l-118 347z" />
    <glyph glyph-name="five" unicode="5" horiz-adv-x="1125" 
d="M558 293h-143v17h143v-17zM682 259h-267v17h267v-17zM814 225h-399v17h399v-17zM948 191h-533v17h533v-17zM1080 157h-1049v17h1049v-17zM952 123h-533v17h533v-17zM818 89h-399v17h399v-17zM686 55h-267v17h267v-17zM562 21h-143v17h143v-17z" />
    <glyph glyph-name="six" unicode="6" horiz-adv-x="609" 
d="M388 525l-42 28l-134 134l42 -28zM447 424l-200 118l-20 34l200 -116zM509 340l-267 72l-10 34l267 -72zM570 272h-525v34h525v-34zM509 236l-10 -34l-267 -72l10 34zM447 152l-20 -36l-200 -116l20 34zM388 51l-134 -134l-42 -28l134 134z" />
    <glyph glyph-name="seven" unicode="7" horiz-adv-x="870" 
d="M853 162l-412 -180l43 129l-389 -109l235 90l-272 -42l268 72l-290 -22l288 46l-294 16l296 10l-290 46l294 -20l-276 68l280 -40l-239 96l389 -109l-43 129z" />
    <glyph glyph-name="eight" unicode="8" horiz-adv-x="849" 
d="M824 159l-458 -196l64 140l-406 56l406 56l-64 141z" />
    <glyph glyph-name="colon" unicode=":" horiz-adv-x="834" 
d="M784 234l-28 -2l-26 8l-2 -46l2 -22l-50 2l-18 4v-46l8 -18l-26 -2l-38 8l4 -20l2 -36l-28 -6l-38 -4l6 -22v-36l-26 4l-30 6v48l-10 18l2 22l4 32l12 42h-16l-82 4l-10 12l-14 -14l-68 4h-36h-24l-32 6l-32 -6l-40 -2l-58 2l-30 2l-24 -2v36v16l26 -4l28 -10l18 8l-2 28
v22l-6 18l-32 2l-32 4v22l2 28l38 -8l28 8l56 -8l48 12l62 -8l64 8l20 -2l48 -8l14 2l42 4l22 8l18 -4l-6 48l10 28l-2 30l-6 22l-4 28l2 12l34 -2l24 4l4 -34v-24l36 6l20 -18v-18l4 -30l34 4l20 -2l-4 -38v-20l36 4l24 -4l-2 -36l2 -20l34 2l20 -8l2 -30z" />
    <glyph glyph-name="semicolon" unicode=";" horiz-adv-x="851" 
d="M798 87l-45 -9l-42 -15l-36 -12l-36 3l-33 -6l-30 -12l-27 -6l-33 -3l-39 -15h-30l-21 -15l-21 -6v51l-3 9v15l-30 -6l-42 3l-39 -6l-45 6l-54 -6l-39 9l-33 -3l-39 6l-27 -9l3 27l-3 30l45 -6l48 6l51 -9l36 15l39 -6h39l45 -6l36 3h30l-9 15l3 42l-3 27l-3 6l36 -27
l45 -9l24 -9l62 -14l29 -16l5 9l30 -12h28l38 -17l33 -7l29 -1z" />
    <glyph glyph-name="equal" unicode="=" horiz-adv-x="1136" 
d="M1086 162l-4 -32l-52 2h-62l-30 2l8 -18v-18h-74l-56 2l-2 -22l-6 -20l-32 8l-62 -2h-28l-8 -14l-4 -22l-84 2h-46l8 -26l-48 -4l-14 -8l-16 8l-38 -2l-20 2v28l-6 38l6 26l-64 6l-90 2l-58 4l-68 -4l-60 -4l-40 2l-4 38v42l4 22l50 -4l28 8l16 -6l30 2l50 2l80 -8l46 2
l26 4l24 -2l28 4l-2 44l10 30l-10 18h48h42h32l14 4v-30l34 -4h60l24 4l20 -2l-2 -34h44l10 -14l4 12l38 4l32 -4l6 -32l50 2l40 -2l38 2l4 -32l62 -4l44 2z" />
    <glyph glyph-name="question" unicode="?" horiz-adv-x="855" 
d="M800 212l-60 -28l-24 10l6 -18l-16 -8l-38 -22l-50 -30l-32 -10l-94 -60l-46 -28l-58 -38l10 46l22 82l8 36l-54 -8l-14 22l-4 -24l-124 -30l-60 -18l-14 6l-56 -22l-66 -14l6 80l-2 84l6 62l-10 26l8 44l-8 24l52 -28h44l56 -12l60 -24l76 -4l30 -6l78 -18l-6 48l-14 36
l-16 36l-8 48l64 -38l32 -26l18 -2l36 -12l24 -22l68 -46l60 -20l48 -46z" />
    <glyph glyph-name="A" unicode="A" 
d="M789 51h-316l-89 -68l-347 90l347 92l89 -68h316v-46z" />
    <glyph glyph-name="B" unicode="B" horiz-adv-x="835" 
d="M790 119h-545v-119h-68v66h-68v68h-68v70h68v68h68v67h68v-120h545v-100z" />
    <glyph glyph-name="C" unicode="C" horiz-adv-x="688" 
d="M618 112l-111 -112l-351 351l-15 -14l40 -39v-123l-146 -72v486h486l-72 -150h-130l-41 41l-13 -15z" />
    <glyph glyph-name="D" unicode="D" horiz-adv-x="790" 
d="M753 327h-483l69 -368l-313 428l313 403l-62 -347h476v-116z" />
    <glyph glyph-name="E" unicode="E" horiz-adv-x="815" 
d="M780 226l-524 -35l225 -22l-40 -207q-404 286 -404 291l404 286l40 -207l-225 -21l524 -36v-49z" />
    <glyph glyph-name="F" unicode="F" horiz-adv-x="834" 
d="M784 171h-459v-171h-58v57h-57v57h-57v57h-58v58h-57v58h57v58h58v56h57v57h57v59h58v-173h459v-52h-68v-72h68v-49z" />
    <glyph glyph-name="G" unicode="G" horiz-adv-x="870" 
d="M811 174h-460v-173h-57v58h-57v58h-58v56h-57v57h-57v59h57v58h57v56h58v58h57v57h57v-171h460v-173z" />
    <glyph glyph-name="H" unicode="H" horiz-adv-x="905" 
d="M844 372q-1 -108 -55 -198.5t-146 -143t-200 -51.5t-198.5 55t-143 146t-51.5 200t55 198.5t146 143t200 51.5t198.5 -55t143 -146t51.5 -200zM789 380q-1 141 -101.5 240t-240.5 98q-141 0 -240 -100.5t-98 -241.5t101 -240t241 -98t240 101.5t98 240.5zM691 306h-269
v-141h-46v48h-47v47h-46v45h-47v47h-47v48h47v47h47v46h46v47h47v46h46v-139h269v-141z" />
    <glyph glyph-name="I" unicode="I" horiz-adv-x="835" 
d="M784 133h-417l127 -155l-458 196l458 197l-127 -155l417 1v-84z" />
    <glyph glyph-name="J" unicode="J" horiz-adv-x="890" 
d="M361 403h-115v58h57v58h58v-116zM820 294h-689v53h689v-53zM127 230h-57v58h57v-58zM820 170h-689v54h689v-54zM361 0h-58v58h-57v58h115v-116z" />
    <glyph glyph-name="K" unicode="K" horiz-adv-x="820" 
d="M784 212h-423v-212h-107v107h-105v105h-106v106h106v106h105v106h107v-212h423v-106z" />
    <glyph glyph-name="L" unicode="L" horiz-adv-x="860" 
d="M795 131h-311v-131h-107v43h-105v44h-106v44h-107v54h107v43h106v44h105v45h107v-133h311v-53z" />
    <glyph glyph-name="M" unicode="M" horiz-adv-x="830" 
d="M808 220h-580v-55h55v-53h55v-55h54v-56h-112v56h-54v55h-55v53h-55v55h-54v56h54v54h55v55h55v55h54v54h112v-54h-54v-55h-55v-55h-55v-54h580v-56z" />
    <glyph glyph-name="N" unicode="N" horiz-adv-x="785" 
d="M719 83h-78v-83h-86v86h-84v85h-80v79h-170v-80h-80v-85h-87v585h580v-87h-85v-80h-80v-170h79v-80h85v-84h86v-86z" />
    <glyph glyph-name="O" unicode="O" horiz-adv-x="845" 
d="M787 62h-228v-73l-515 97l515 98v-73h228v-49z" />
    <glyph glyph-name="P" unicode="P" horiz-adv-x="851" 
d="M797 64h-356v-77l-388 103l388 103v-77h356v-52z" />
    <glyph glyph-name="Q" unicode="Q" 
d="M794 162l-53 -31l-52 31l-52 -30l-50 30l-50 -28l-48 28l-103 -61l49 -27l-49 -28l51 -30l-52 -31l-357 206l353 204l54 -31l-52 -30l49 -28l-49 -28l103 -60l48 28l49 -28l52 29l51 -29l52 31l53 -31l-47 -27z" />
    <glyph glyph-name="R" unicode="R" horiz-adv-x="815" 
d="M784 164l-555 22l208 -99l-40 -119l-365 268l365 269l41 -122l-209 -102l555 21v-138z" />
    <glyph glyph-name="S" unicode="S" horiz-adv-x="855" 
d="M796 55l-389 94l43 -168l-412 234l412 234l-43 -168l389 94v-320z" />
    <glyph glyph-name="T" unicode="T" horiz-adv-x="890" 
d="M806 306l-225 -140l224 -149l-8 -16l-389 109l43 -129l-412 180l412 180l-43 -129l389 109z" />
    <glyph glyph-name="U" unicode="U" horiz-adv-x="888" 
d="M845 369q-1 -108 -55 -198.5t-146 -143t-200 -51.5t-198.5 55t-143 146t-51.5 200t55 198.5t146 143t200 51.5t198.5 -55t143 -146t51.5 -200zM786 373q-1 141 -101 240t-241 98t-240 -101.5t-98 -240.5q1 -141 101.5 -240t240.5 -98q141 0 240 100.5t98 241.5zM719 360
l-247 -23l5 -91l-289 126l289 126l-5 -90l247 -24v-24z" />
    <glyph glyph-name="V" unicode="V" horiz-adv-x="860" 
d="M814 175h-500l-1 -20h58l92 -93l-54 -156l-344 343l344 344l52 -154l-88 -87l-55 1v-21h496v-157z" />
    <glyph glyph-name="W" unicode="W" horiz-adv-x="843" 
d="M794 68h-272v-71h-95v24h-94v24h-95v23h-95v24h-94v24h94v24h95v23h95v24h94v23h95v-70h272v-72z" />
    <glyph glyph-name="X" unicode="X" horiz-adv-x="843" 
d="M767 67h-293l21 -70h-95l7 23h-101l7 24h-102l7 23h-102l7 24h-101v24h101l-7 24h102l-7 23h102l-7 24h101l-7 24h95l-21 -71h293l-15 -36z" />
    <glyph glyph-name="Y" unicode="Y" horiz-adv-x="885" 
d="M815 142l-353 -34l7 -129l-412 180l412 180l-7 -129l353 -34v-34z" />
    <glyph glyph-name="Z" unicode="Z" horiz-adv-x="656" 
d="M593 -53l-546 250l546 250l-172 -250z" />
    <glyph glyph-name="bracketleft" unicode="[" horiz-adv-x="1124" 
d="M1070 229h-57v58h57v-58zM953 171h-58v174h58v-174zM613 0h-58v517h58v-517zM839 114h-57v287h57v-287zM726 57h-57v401h57v-401zM495 171h-459v49h68v72h-68v52h459v-173z" />
    <glyph glyph-name="backslash" unicode="\" horiz-adv-x="812" 
d="M786 198q-14 -15 -40 -3.5t-45.5 24.5t-40.5 -3q-12 -13 -5 -49t-7 -47q-13 -12 -44 -4.5t-46 -1.5q-17 -12 -12.5 -40.5t11.5 -50t-14 -38.5q-46 -26 -105 18q-20 15 -18 39.5t14.5 47.5t17.5 50.5t-8 48.5q-17 25 -43.5 36.5t-48.5 12t-62.5 -2t-61.5 -1.5
q-26 1 -61 -12t-59.5 -25t-49.5 -11.5t-40 24.5q-41 65 -6 117q12 18 31.5 21t37.5 -3t44.5 -13.5t45.5 -7.5t77 -5t97 -1q22 2 39.5 0.5t35 2.5t30.5 18t16 29.5t-0.5 44t-3.5 37.5q0 15 -9 37t-12.5 33.5t6.5 31.5q23 28 65.5 16.5t60.5 -46.5q10 -19 -11.5 -55t-9.5 -53
q11 -16 36.5 -9t45.5 16.5t38 -7.5q13 -16 -4 -54t-5 -54q10 -12 27.5 -10.5t33.5 9t34 9t28 -10.5q20 -23 20 -52.5t-20 -52.5z" />
    <glyph glyph-name="asciicircum" unicode="^" horiz-adv-x="1125" 
d="M558 544h-143v34h143v-34zM682 476h-267v34h267v-34zM814 408h-399v34h399v-34zM948 340h-533v34h533v-34zM1080 272h-1049v34h1049v-34zM952 204h-533v34h533v-34zM818 136h-399v34h399v-34zM686 68h-267v34h267v-34zM562 0h-143v34h143v-34z" />
    <glyph glyph-name="underscore" unicode="_" horiz-adv-x="712" 
d="M674 128l-97 26l26 -96l-96 26l26 -97l-96 26l-52 193l-385 -39v142l385 -39l52 193l96 25l-26 -96l96 26l-26 -96l97 26v-220z" />
    <glyph glyph-name="a" unicode="a" 
d="M791 73l-347 -90l-89 68h-316v46h316l89 68z" />
    <glyph glyph-name="b" unicode="b" horiz-adv-x="835" 
d="M788 134h-68v-68h-68v-66h-68v119h-545v100h545v120h68v-67h68v-68h68v-70z" />
    <glyph glyph-name="c" unicode="c" horiz-adv-x="688" 
d="M622 0h-486l72 149h130l41 -40l13 14l-353 354l111 112l351 -351l15 14l-40 39v123l146 72v-486z" />
    <glyph glyph-name="d" unicode="d" horiz-adv-x="790" 
d="M762 387l-313 -428l69 368h-483v116h476l-62 347z" />
    <glyph glyph-name="e" unicode="e" horiz-adv-x="830" 
d="M773 247l-404 -286l-40 207l225 21l-524 36v49l524 35l-225 22l40 207z" />
    <glyph glyph-name="f" unicode="f" horiz-adv-x="834" 
d="M782 229h-57v-58h-58v-57h-57v-57h-57v-57h-58v171h-459v49h68v72h-68v52h459v173h58v-59h57v-57h57v-56h58v-58h57v-58z" />
    <glyph glyph-name="g" unicode="g" horiz-adv-x="870" 
d="M793 230h-57v-57h-57v-56h-58v-58h-57v-58h-57v173h-460v173h460v171h57v-57h57v-58h58v-56h57v-58h57v-59z" />
    <glyph glyph-name="h" unicode="h" horiz-adv-x="905" 
d="M848 380q1 -108 -51.5 -200t-143 -146t-198.5 -55t-200 51.5t-146 143t-55 198.5t51.5 200t143 146t198.5 55t200 -51.5t146 -143t55 -198.5zM789 376q1 141 -98 241.5t-240 100.5q-140 1 -240.5 -98t-101.5 -240q-1 -140 98 -240.5t240 -101.5t241 98t101 240zM709 352
h-47v-47h-47v-45h-46v-47h-47v-48h-46v141h-269v141h269v139h46v-46h47v-47h46v-46h47v-47h47v-48z" />
    <glyph glyph-name="i" unicode="i" horiz-adv-x="835" 
d="M788 174l-458 -196l127 155h-417v84l417 -1l-127 155z" />
    <glyph glyph-name="j" unicode="j" horiz-adv-x="890" 
d="M640 403h-115v116h58v-58h57v-58zM755 294h-689v53h689v-53zM816 230h-57v58h57v-58zM755 170h-689v54h689v-54zM640 58h-57v-58h-58v116h115v-58z" />
    <glyph glyph-name="k" unicode="k" horiz-adv-x="820" 
d="M763 212h-106v-105h-105v-107h-107v212h-423v106h423v212h107v-106h105v-106h106v-106z" />
    <glyph glyph-name="l" unicode="l" horiz-adv-x="860" 
d="M781 131h-107v-44h-106v-44h-105v-43h-107v131h-311v53h311v133h107v-45h105v-44h106v-43h107v-54z" />
    <glyph glyph-name="m" unicode="m" horiz-adv-x="830" 
d="M793 220h-54v-55h-55v-53h-55v-55h-54v-56h-112v56h54v55h55v53h55v55h-580v56h580v54h-55v55h-55v55h-54v54h112v-54h54v-55h55v-55h55v-54h54v-56z" />
    <glyph glyph-name="n" unicode="n" horiz-adv-x="785" 
d="M714 0h-580v87h85v80h80v170h-79v80h-85v84h-86v86h78v83h86v-86h84v-85h80v-79h170v80h80v85h87v-585z" />
    <glyph glyph-name="o" unicode="o" horiz-adv-x="845" 
d="M782 86l-515 -97v73h-228v49h228v73z" />
    <glyph glyph-name="p" unicode="p" horiz-adv-x="851" 
d="M795 90l-388 -103v77h-356v52h356v77z" />
    <glyph glyph-name="q" unicode="q" 
d="M793 189l-353 -204l-54 31l52 30l-49 28l49 28l-103 60l-48 -28l-49 28l-52 -29l-51 29l-52 -31l-53 31l47 27l-50 29l53 31l52 -31l52 30l50 -30l50 28l48 -28l103 61l-49 27l49 28l-51 30l52 31z" />
    <glyph glyph-name="r" unicode="r" 
d="M788 252l-365 -269l-41 122l209 102l-555 -21v138l555 -22l-208 99l40 119z" />
    <glyph glyph-name="s" unicode="s" horiz-adv-x="855" 
d="M798 215l-412 -234l43 168l-389 -94v320l389 -94l-43 168z" />
    <glyph glyph-name="t" unicode="t" horiz-adv-x="870" 
d="M817 162l-412 -180l43 129l-389 -109l-9 15l225 140l-224 149l8 16l389 -109l-43 129z" />
    <glyph glyph-name="u" unicode="u" horiz-adv-x="888" 
d="M847 377q1 -108 -51.5 -200t-143 -146t-198.5 -55t-200 51.5t-146 143t-55 198.5t51.5 200t143 146t198.5 55t200 -51.5t146 -143t55 -198.5zM792 369q1 140 -98 240.5t-240 101.5t-241 -98t-101 -240t98 -241.5t240 -100.5q140 -1 240.5 98t101.5 240zM710 372
l-289 -126l5 91l-247 23v24l247 24l-5 90z" />
    <glyph glyph-name="v" unicode="v" horiz-adv-x="821" 
d="M774 249l-344 -343l-54 156l92 93h58l-1 20h-501v157h497v21l-56 -1l-87 87l52 154z" />
    <glyph glyph-name="w" unicode="w" horiz-adv-x="843" 
d="M767 92h-94v-24h-95v-23h-95v-24h-94v-24h-95v71h-272v72h272v70h95v-23h94v-24h95v-23h95v-24h94v-24z" />
    <glyph glyph-name="x" unicode="x" horiz-adv-x="843" 
d="M767 92h-101l7 -24h-102l7 -23h-102l7 -24h-101l7 -24h-95l21 71h-293l15 36l-15 36h293l-21 70h95l-7 -23h101l-7 -24h102l-7 -23h102l-7 -24h101v-24z" />
    <glyph glyph-name="y" unicode="y" horiz-adv-x="885" 
d="M818 159l-412 -180l7 129l-353 34v34l353 34l-7 129z" />
    <glyph glyph-name="z" unicode="z" horiz-adv-x="656" 
d="M649 197l-546 -250l172 250l-172 250z" />
    <glyph glyph-name="braceleft" unicode="{" horiz-adv-x="1260" 
d="M1188 405l-112 -111l-56 55l-109 -109l-55 54l-109 -111l-56 55l-110 -110l-84 52l79 40l-74 36l74 40l-98 87l-56 -28l-57 27l-60 -30l-59 31l-61 -32l-61 32l55 26l-58 31l61 29l60 -29l60 28l60 -30l56 30l56 -28l97 90l-74 35l74 38l-79 39l89 42l110 -111l56 56
l109 -111l55 54l109 -110l56 56z" />
    <glyph glyph-name="nbspace" unicode="&#xa0;" horiz-adv-x="500" 
 />
    <glyph glyph-name="cent" unicode="&#xa2;" horiz-adv-x="834" 
d="M782 229h-57v-58h-58v-57l-114 -114h-58l168 171h-627v49h626v72h-626v52h627l-168 173h58l114 -116v-56h58v-58h57v-58z" />
    <glyph glyph-name="copyright" unicode="&#xa9;" 
d="M745 98q-97 -61 -204 -84q-68 -15 -195 -15q-88 0 -153.5 9.5t-155.5 34.5l312 55l-307 57q88 26 154 36t155 10q113 0 187 -17q105 -23 207 -86z" />
    <glyph glyph-name="guillemotleft" unicode="&#xab;" horiz-adv-x="816" 
d="M457 641l-37 -198h-23l-37 200l48 96zM591 689l-6 -109l-131 -152l-21 12l68 191zM386 440l-22 -12l-131 152l-6 109l90 -60zM724 556l-59 -93l-190 -67l-12 22l153 130zM354 419l-13 -22l-189 67l-59 90l108 -5zM339 360l-199 -36l-96 48l96 49l198 -36zM772 373
l-96 -50l-198 37v26l198 34zM354 328l-154 -132l-108 -6l59 90l190 69zM724 189l-108 5l-154 133l12 22l191 -70zM386 307l-69 -192l-90 -59l5 108l132 155zM592 55l-91 59l-69 193l22 12l131 -157zM457 102l-49 -95l-49 96l38 201h24zM433 626l-25 57l-22 -57l16 7l7 -48
l7 49zM301 609l-50 37l8 -61l11 14l30 -37l-19 45zM563 641l-50 -37l19 -2l-18 -46l31 40l12 -16zM222 484l-38 31l15 10l-61 7l38 -47l2 17zM684 528l-60 -10l14 -10l-38 -29l46 17v-18zM725 373l-57 24l8 -17l-47 -7l47 -7l-8 -18zM198 371l-50 7l8 18l-56 -25l57 -24
l-8 17zM679 217l-37 48l-2 -18l-45 19l39 -31l-15 -11zM226 265l-46 -18l-2 19l-37 -50l61 9l-14 11zM567 104l-9 61l-11 -15l-29 39l19 -47l-20 -2zM301 134l-17 3l17 44l-30 -38l-12 16l-7 -62zM430 113l-16 -7l-6 47l-8 -48l-17 7l25 -56z" />
    <glyph glyph-name="plusminus" unicode="&#xb1;" horiz-adv-x="864" 
d="M813 144q1 -30 -24 -40t-69 -13t-66 -13q-20 -9 -68.5 -35t-84.5 -37q-14 -4 -35.5 -15t-35.5 -18t-31 -7t-30 13q-15 15 0.5 32.5t41 32t42 33t3.5 34.5q-12 16 -30 16.5t-34 -7.5l-40 -20t-40 -16q-29 -8 -77 -30.5t-82 -29.5q-13 -3 -31.5 -9.5t-30.5 -10t-27 -2.5
t-28 10q-34 24 31 53q15 7 50 20q42 15 57 23q17 9 49.5 10.5t52.5 8.5t24 29q4 24 -14 37t-53 23.5t-50 20.5q-19 12 -64.5 24.5t-67 25.5t-6.5 37q11 18 29.5 18t35.5 -9.5t42.5 -24.5t42.5 -20q25 -8 66.5 -29t71.5 -28q15 -4 39 -14t39 -16t33 -4t30 16q15 15 0.5 33.5
t-38.5 31.5t-42 33t-10 40t23.5 24.5t36 -5.5t41 -23t47 -29.5t44.5 -23.5q6 -2 21.5 -8t21 -8.5t18 -7.5t19 -8t17 -8.5t19.5 -10.5t19 -12q11 -7 42 -21.5t45 -28.5t15 -37z" />
    <glyph glyph-name="paragraph" unicode="&#xb6;" horiz-adv-x="1104" 
d="M1064 191q-128 -91 -256 -130q-59 -18 -151 -36.5t-155 -28.5l-62 -9l211 189q-432 -35 -569 -58q-34 16 -34 78q0 49 37 70q59 -9 200.5 -21t253.5 -19l112 -8l-211 181q234 -23 362 -68q162 -55 262 -140z" />
    <glyph glyph-name="questiondown" unicode="&#xbf;" horiz-adv-x="855" 
d="M801 219q-2 -7 -14.5 -14t-42.5 -18t-36 -13q-3 -1 -21 -6.5t-27 -11.5q-10 -7 -20 -23t-16 -22q-24 -23 -75 -36.5t-72 -26.5q-15 -9 -31 -32.5t-31 -36.5t-34 -6q-14 5 -15.5 15.5t8 24t21 28t23 32.5t14.5 32q3 17 2.5 27t-7.5 14t-14.5 3.5t-19.5 -4t-22 -7
t-21.5 -6.5t-19.5 -3q-18 0 -35.5 -2.5t-28 -6t-31 -11t-31.5 -10.5q-17 -6 -48.5 -21.5t-53.5 -20.5q-8 -2 -20 -7t-20 -8.5t-18 -3t-17 6.5q-8 7 -9 16.5t2.5 18.5t7.5 21.5t5 21.5q2 16 12 49t9 56q0 19 -14.5 48.5t-12.5 50.5q3 32 11.5 42.5t17 6t22 -12t21.5 -6.5
q29 3 68.5 -24t63.5 -30t67.5 12t70.5 6q13 -4 32.5 -29t36.5 -19q10 4 14 11.5t2.5 18.5t-4 20.5t-8 24t-7.5 21.5q-4 15 -22.5 30t-30 28t-4.5 29q6 12 15 13t20 -7.5t22.5 -19.5t25.5 -23t25 -17q20 -10 54.5 -24t59 -27t48.5 -33q11 -10 28 -31.5t32 -31.5
q9 -6 22.5 -10.5t25.5 -6.5t23.5 -4.5t17 -6t4.5 -8.5z" />
    <glyph glyph-name="germandbls" unicode="&#xdf;" horiz-adv-x="836" 
d="M781 69q-77 -29 -126 -39q-24 -5 -61 -9t-62 -5l-24 -2q25 6 37 14q4 3 9.5 9t9.5 11l3 4l1 3q-4 3 -30 0h-2q-3 0 -29.5 -4.5t-55 -7.5t-38.5 -1q-9 2 -26 11t-30 9q-11 0 -27 -10t-28 -10t-29 10t-28 10t-27 -10t-28 -10t-29 9.5t-28 10.5q-9 1 -22.5 0t-22.5 -2l-9 -2
q33 14 54 14q11 0 28 -10t29 -10t28 10t27 10t28 -10t29 -10t28 10t27 10q13 0 30 -9t26 -11q13 -3 67 4.5t56 7.5q34 2 31 -2q-11 17 -20 23q-5 4 -15 8t-17 6l-7 2q79 -2 128 -7q25 -3 61 -9t60 -11z" />
    <glyph glyph-name="agrave" unicode="&#xe0;" horiz-adv-x="819" 
d="M783 107l-412 -60l7 43h-353v34h353l-7 43z" />
    <glyph glyph-name="egrave" unicode="&#xe8;" horiz-adv-x="816" 
d="M457 641l-49 -267l-48 269l37 -13v114l11 -5l13 7v-114zM409 374l-176 206l37 11l-57 97l14 1l7 13l57 -100l26 27zM605 688l-57 -99l37 -9l-176 -206l92 257l25 -28l57 97l8 -11zM408 374l-256 90l28 28l-99 56l12 6v17l99 -57l9 35zM737 548l-99 -57l27 -28l-257 -91
l208 176l9 -36l99 55v-11zM408 372l-268 -48l10 36h-114l8 12l-8 14h114l-10 35zM780 359h-114l10 -36l-267 50l267 47l-10 -37l114 2l-8 -12zM408 373l-208 -177l-9 37l-99 -57v14l-13 7l99 57l-27 26zM736 195l-12 -6v-15l-99 57l-9 -37l-207 178l256 -93l-28 -27z
M409 371l-92 -256l-27 28l-57 -98l-6 11h-16l57 99l-36 9zM605 55h-13l-8 -12l-57 98l-26 -27l-92 258l176 -210l-37 -8zM457 102l-36 12v-114l-13 7l-11 -8l-1 115l-37 -11l50 269z" />
    <glyph glyph-name="eacute" unicode="&#xe9;" horiz-adv-x="825" 
d="M786 533l-412 -60l7 43h-353v34h353l-7 43zM786 383l-412 -60l7 43h-353v34h353l-7 43zM786 233l-412 -60l7 43h-353v34h353l-7 43zM786 83l-412 -60l7 43h-353v34h353l-7 43z" />
    <glyph glyph-name="edieresis" unicode="&#xeb;" horiz-adv-x="1628" 
d="M786 533l-412 -60l7 43h-353v34h353l-7 43zM1570 366h-353l7 -43l-412 60l412 60l-7 -43h353v-34zM786 383l-412 -60l7 43h-353v34h353l-7 43zM1570 216h-353l7 -43l-412 60l412 60l-7 -43h353v-34zM786 233l-412 -60l7 43h-353v34h353l-7 43zM1570 66h-353l7 -43
l-412 60l412 60l-7 -43h353v-34zM786 83l-412 -60l7 43h-353v34h353l-7 43zM1570 -84h-353l7 -43l-412 60l412 60l-7 -43h353v-34z" />
    <glyph glyph-name="divide" unicode="&#xf7;" horiz-adv-x="834" 
d="M774 231q-7 -8 -26.5 1.5t-27.5 4.5q-12 -8 7.5 -36.5t7.5 -38.5t-36 12.5t-36 14.5q-13 -13 -1 -25t26 -31t5 -31q-7 -10 -23 -6t-30.5 13t-27.5 11.5t-15 -9.5t16.5 -28.5t13.5 -28.5q-5 -13 -35.5 -2.5t-39.5 -0.5q-8 -12 14 -35.5t16 -36.5q-13 -25 -49 -5.5
t-47 50.5q-6 16 4.5 41t10.5 37q0 7 3 24t1.5 27t-10.5 18q-14 14 -44.5 -3t-42.5 -18q-33 -2 -79.5 16t-73.5 20q-26 2 -80 -12.5t-88 -2.5q-5 1 -17 4t-18 5t-12.5 7.5t-9.5 13.5q-5 14 12 14q6 0 22 -3q48 -8 59 7q18 27 12 51q-4 15 -23.5 14t-38 -5.5t-31.5 9.5
q-23 30 -12 69q7 24 28 27t61 -7t55 -11q32 -2 82.5 -21.5t85.5 -20.5q15 0 40 -3t42.5 -4.5t36 -0.5t30.5 10.5t16 27.5q2 9 0 45q-1 16 -11 36t-18.5 33t-10.5 29.5t13 24.5q26 17 45 12q14 -4 16 -32t14 -34q6 -3 20 -2t19 -4q8 -6 7.5 -24.5t4.5 -26.5q8 -9 35 -4t28 -8
q2 -8 -9.5 -20.5t-8.5 -21.5q1 -14 27.5 -1.5t35.5 4.5q10 -10 -7 -36t-8 -36q8 -10 32.5 -2t33.5 -1q12 -12 15 -27t-6 -27z" />
    <glyph glyph-name="endash" unicode="&#x2013;" horiz-adv-x="795" 
d="M760 199l-129 -50h-49v-49h-52v-51h-49v-49h-49l129 172h-531v105h531l-129 174h49v-51h49v-51h52v-48h49l129 -51h-80v-51h80z" />
    <glyph glyph-name="emdash" unicode="&#x2014;" horiz-adv-x="694" 
d="M674 193h-153l56 -96h-151l56 -97h-97v193h-385v97h385v192h97l-56 -97h151l-56 -95h153l-62 -49z" />
    <glyph glyph-name="quoteleft" unicode="&#x2018;" horiz-adv-x="715" 
d="M441 386l-139 333l30 12zM432 381l-195 304l29 17zM422 374l-321 165l16 29zM437 373l-146 157l14 14zM434 367l-174 132l14 15zM419 364l-345 108l11 31zM429 361l-214 28l2 19zM694 360l-128 -110l5 82l-106 27l106 27l-5 78zM429 355l-217 -10v20zM418 353l-353 -79
l-6 32zM431 348l-183 -116l-10 17zM421 343l-333 -138l-11 30zM435 344l-160 -147l-13 15zM426 332l-218 -286l-26 20zM435 327l-166 -320l-29 16z" />
    <glyph glyph-name="quoteright" unicode="&#x2019;" horiz-adv-x="836" 
d="M788 56l-280 -42l59 38h-394l-52 -52h-17l53 52h-15l-42 -40h-17l42 40h-15l-31 -31h-17l31 31h-15l-21 -19h-16l26 24l-26 27h16l21 -22h15l-31 31h17l31 -31h15l-42 43h17l42 -43h15l-53 52h17l52 -52h394l-59 39z" />
    <glyph glyph-name="quotedblleft" unicode="&#x201c;" horiz-adv-x="1176" 
d="M752 472h-57v59h57v-59zM624 472h-57v59h57v-59zM504 472h-57v59h57v-59zM376 472h-57v59h57v-59zM1147 212h-106v-105h-105v-107h-107v212h-423v106h423v212h107v-106h105v-106h106v-106zM340 236h-57v59h57v-59zM220 236h-57v59h57v-59zM92 236h-57v59h57v-59zM752 0
h-57v59h57v-59zM624 0h-57v59h57v-59zM504 0h-57v59h57v-59zM376 0h-57v59h57v-59z" />
    <glyph glyph-name="quotedblright" unicode="&#x201d;" horiz-adv-x="628" 
d="M437 601l-83 108l21 2zM377 583l-100 91l20 6zM307 545l-115 74l19 9zM253 506l-126 53l17 12zM212 456l-133 29l15 15zM174 368l-121 -12v23zM601 372l-156 -215l62 185l-269 -58l236 85l-236 89l266 -58l-59 172zM212 278l-118 -44l-15 15zM253 228l-109 -65l-17 12z
M307 189l-96 -83l-19 9zM377 151l-80 -97l-20 6zM437 133l-62 -110l-21 2z" />
    <glyph glyph-name="quotedblbase" unicode="&#x201e;" horiz-adv-x="777" 
d="M406 557l-25 -175l-25 175l18 -4v151h15v-151zM734 345h-151l4 -18l-175 26l175 25l-4 -18h151v-15zM351 353l-175 -26l4 19h-151v14h151l-4 18zM406 147l-19 4v-151h-14v151l-18 -4l25 175z" />
    <glyph glyph-name="bullet" unicode="&#x2022;" horiz-adv-x="796" 
d="M774 381q0 -12 -17.5 -29t-44.5 -39t-40 -40q-17 -24 -37.5 -63.5t-28.5 -53.5q-47 -80 -63 -99q-8 -10 -22.5 -30.5t-23 -31.5t-24.5 -20t-35 -8q-35 1 -15 39q6 11 25 39q49 72 50 105q1 17 -2.5 42t-3.5 42q0 14 14 46.5t4 52.5q-9 19 -19 21.5t-21.5 -3.5t-42 -12
t-67.5 -3q-19 1 -49 -14t-50 -13q-22 2 -50.5 24t-48.5 24q-18 2 -39.5 -9t-35.5 -23t-33 -17.5t-33 7.5q-32 25 -31.5 74.5t37.5 66.5q20 9 52 -10.5t50 -19.5q23 0 57 16.5t57 16.5q21 0 52 -15t53 -15q20 0 48.5 14.5t47.5 15.5q11 1 26.5 -4.5t26.5 -11t21.5 -5
t15.5 11.5q3 16 0 22.5t-13.5 20.5t-13.5 23q-4 10 -22 49t-26 65q-15 52 -25.5 108.5t-1.5 53.5q57 -17 91.5 -51.5t58.5 -92.5q6 -14 9 -41.5t12 -42.5q13 -24 50.5 -43.5t51.5 -34.5q7 -8 23.5 -24t23.5 -24.5t14 -24t8 -32.5z" />
    <glyph glyph-name="ellipsis" unicode="&#x2026;" horiz-adv-x="851" 
d="M804 84q0 -6 -5 -8.5t-14.5 -2.5t-13.5 -1q-16 -4 -41 1t-40 2q-14 -3 -33.5 -15t-32.5 -15q-16 -4 -47 -2t-46 -4q-14 -5 -31.5 -22.5t-31.5 -22.5q-6 -2 -19.5 -7.5t-22 -8.5t-18.5 -4.5t-15.5 2t-5.5 12.5q0 10 15.5 21t14.5 21q-1 11 -12 24q-10 13 -33 18
q-17 5 -44 -10.5t-43 -13.5q-11 2 -27 12t-27 12q-17 3 -46 -12t-47 -9q-8 2 -19 13.5t-20 13.5q-10 2 -30.5 -9.5t-29.5 -2.5q-11 14 -6.5 30.5t18.5 29.5t43 -6t44 -18q11 0 28 9t29 9q8 0 19.5 -4t16.5 -5q51 -10 66 -9q13 1 34 12.5t35 11.5q8 0 21 -7t19 -10t14 5
q4 8 -5.5 21.5t-9.5 20.5q0 6 -3 21.5t-3 23.5t7.5 15t25.5 6q15 -1 32.5 -19t27.5 -23q14 -7 39 -11.5t39 -12.5q8 -4 21.5 -20t26.5 -19q15 -4 36.5 7.5t35.5 10.5q19 -2 41 -21.5t37 -23.5q5 -1 14.5 0.5t15.5 0.5t6 -7z" />
    <glyph glyph-name="radical" unicode="&#x221a;" horiz-adv-x="693" 
d="M644 229h-57v-58h-58v-57h-57v-57h-57v-57h-58l127 230l-343 -59l-90 49h89v72h-89l90 52l343 -58l-127 231h58v-59h57v-57h57v-56h58v-58h57v-58z" />
    <glyph glyph-name="integral" unicode="&#x222b;" horiz-adv-x="1012" 
d="M985 131h-107v54h107v-54zM517 0h-107v317h107v-317zM828 87h-106v141h106v-141zM672 43h-105v229h105v-229zM360 131h-311v53h311v-53z" />
    <glyph glyph-name="notequal" unicode="&#x2260;" horiz-adv-x="1136" 
d="M1107 150q1 -18 -14 -20t-37.5 3.5t-57.5 -2.5t-65 -35q-9 -10 -19 -8.5t-15.5 7.5t-20 11t-32.5 2q-22 -3 -34 -21t-25 -23t-33.5 10.5t-41.5 8.5q-16 -5 -30 -27t-27 -28t-31 -1t-31 12.5t-27.5 8.5t-19.5 -12q-5 -9 -2.5 -25t-0.5 -26q-14 -39 -62 -44t-85 23
q-15 9 -9 26.5t20 33t23.5 36t1.5 36.5q-11 22 -33 25.5t-44 -5.5t-54 -19t-55 -10q-30 0 -91.5 -15.5t-97.5 -12t-48 42.5q-21 74 12 102q10 11 25.5 9.5t27 -7.5t29.5 -13t32 -7q36 -1 91.5 15t91.5 15q14 0 32.5 -8t30.5 -14.5t27.5 -7.5t23.5 12q14 17 -7.5 52t-16.5 53
q8 31 51 32.5t72 -23.5q8 -6 9.5 -25.5t17.5 -31.5q12 -9 28 -5t29.5 13.5t29 13.5t27.5 -4q10 -8 6.5 -25t11.5 -20q19 -7 50 5t49 7q8 -3 10.5 -8.5t2 -11.5t4 -13t16.5 -12q19 -9 60 6t57 0q5 -3 11.5 -17.5t15.5 -15.5q15 -2 53.5 5t62 4t25.5 -27z" />
  </font>
</defs>
</svg>
